<?xml version="1.0" ?><!-- Uploaded to: SVG Repo, www.svgrepo.com, Generator: SVG Repo Mixer Tools -->
<svg width="800px" height="800px" viewBox="0 0 512 512" id="home" xmlns="http://www.w3.org/2000/svg"><defs><style>.cls-1{fill:#f19ec3;}.cls-2{fill:#cbeee1;}</style></defs><title/><polygon class="cls-1" points="132 97 81 192 432 192 380 97 132 97"/><rect class="cls-2" height="69" width="81" x="270" y="282"/><path d="M336.62,270.35H284.79a25.74,25.74,0,0,0-25.72,25.72v39.74a25.74,25.74,0,0,0,25.72,25.72h51.82a25.74,25.74,0,0,0,25.72-25.72V296.06A25.74,25.74,0,0,0,336.62,270.35Zm7,65.46a7,7,0,0,1-7,7H284.79a7,7,0,0,1-7-7V296.06a7,7,0,0,1,7-7h51.82a7,7,0,0,1,7,7Z"/><path d="M447,198.1a8.68,8.68,0,0,0-1.25-4.6L389.07,93.75A9.4,9.4,0,0,0,381,89H131.66a9.24,9.24,0,0,0-8.1,4.75L66.9,193.51a9.45,9.45,0,0,0-1.25,4.6,54.71,54.71,0,0,0,32.73,50V412.65a9.38,9.38,0,0,0,9.35,9.35H404.89a9.38,9.38,0,0,0,9.35-9.35V249.3a4.12,4.12,0,0,0-.08-1A54.86,54.86,0,0,0,447,198.1ZM137.11,107.78H375.51l44.34,78h-327Zm200,96.63a35.94,35.94,0,0,1-70.76,0Zm-90.63,0a36,36,0,0,1-70.84,0ZM85,204.42h70.84a36,36,0,0,1-70.84,0ZM222.76,403.3H169V302.38A13.32,13.32,0,0,1,182.32,289h27.2a13.32,13.32,0,0,1,13.33,13.33V403.3Zm172.77,0H241.46V302.38a32.08,32.08,0,0,0-32-32h-27.2a32.08,32.08,0,0,0-32,32v101H117.09V252.73c1.09.08,2.18.08,3.27.08a54.64,54.64,0,0,0,45.36-24.16,54.66,54.66,0,0,0,90.71,0,54.51,54.51,0,0,0,90.56,0,54.64,54.64,0,0,0,45.36,24.16c1.09,0,2.1-.08,3.2-.08V403.3Zm-3.2-169.19A35.92,35.92,0,0,1,357,204.49H427.8A36.14,36.14,0,0,1,392.34,234.11Z"/></svg>